<?xml version="1.0" standalone="no"?>
<!DOCTYPE svg PUBLIC "-//W3C//DTD SVG 20010904//EN"
 "http://www.w3.org/TR/2001/REC-SVG-20010904/DTD/svg10.dtd">
<svg version="1.0" xmlns="http://www.w3.org/2000/svg"
 width="260.000000pt" height="260.000000pt" viewBox="0 0 260.000000 260.000000"
 preserveAspectRatio="xMidYMid meet">
<metadata>
Created by potrace 1.14, written by Peter Selinger 2001-2017
</metadata>
<g transform="translate(0.000000,260.000000) scale(0.100000,-0.100000)"
fill="#000000" stroke="none">
<path d="M1940 2290 c0 -33 3 -40 20 -40 13 0 20 7 20 20 0 13 7 20 20 20 13
0 20 -7 20 -20 0 -18 7 -20 60 -20 53 0 60 -2 60 -20 0 -18 7 -20 60 -20 53 0
60 2 60 20 0 18 -7 20 -60 20 -53 0 -60 2 -60 20 0 18 -7 20 -60 20 -53 0 -60
2 -60 20 0 17 -7 20 -40 20 l-40 0 0 -40z"/>
<path d="M1700 2230 c0 -13 -7 -20 -20 -20 -13 0 -20 -7 -20 -20 0 -13 7 -20
20 -20 13 0 20 -7 20 -20 0 -13 7 -20 20 -20 13 0 20 7 20 20 0 13 -7 20 -20
20 -13 0 -20 7 -20 20 0 18 7 20 60 20 53 0 60 -2 60 -20 0 -13 7 -20 20 -20
17 0 20 -7 20 -40 l0 -40 40 0 c33 0 40 3 40 20 0 17 7 20 40 20 33 0 40 3 40
20 0 17 -7 20 -40 20 -33 0 -40 -3 -40 -20 0 -13 -7 -20 -20 -20 -17 0 -20 7
-20 40 l0 40 -40 0 c-33 0 -40 3 -40 20 0 18 -7 20 -60 20 -53 0 -60 -2 -60
-20z"/>
<path d="M1380 2150 c0 -17 -7 -20 -40 -20 -33 0 -40 -3 -40 -20 0 -13 -7 -20
-20 -20 -13 0 -20 -7 -20 -20 0 -13 7 -20 20 -20 13 0 20 -7 20 -20 0 -18 7
-20 60 -20 53 0 60 -2 60 -20 0 -19 7 -20 100 -20 93 0 100 1 100 20 0 17 7
20 40 20 l40 0 0 40 c0 33 -3 40 -20 40 -13 0 -20 7 -20 20 0 18 -7 20 -60 20
l-60 0 0 -40 c0 -33 3 -40 20 -40 13 0 20 7 20 20 0 17 7 20 40 20 33 0 40 -3
40 -20 0 -13 -7 -20 -20 -20 -13 0 -20 -7 -20 -20 0 -19 -7 -20 -100 -20 -93
0 -100 1 -100 20 0 18 -7 20 -60 20 -53 0 -60 2 -60 20 0 17 7 20 40 20 33 0
40 3 40 20 0 18 7 20 60 20 53 0 60 2 60 20 0 18 -7 20 -60 20 -53 0 -60 -2
-60 -20z"/>
<path d="M2380 2150 c0 -18 -7 -20 -60 -20 -53 0 -60 -2 -60 -20 0 -18 -7 -20
-60 -20 -53 0 -60 -2 -60 -20 0 -18 -7 -20 -60 -20 -53 0 -60 -2 -60 -20 0
-18 -7 -20 -60 -20 -53 0 -60 -2 -60 -20 0 -18 -7 -20 -60 -20 -53 0 -60 -2
-60 -20 0 -18 -7 -20 -60 -20 -53 0 -60 -2 -60 -20 0 -18 -7 -20 -60 -20 -53
0 -60 -2 -60 -20 0 -18 -7 -20 -60 -20 -53 0 -60 -2 -60 -20 0 -18 -7 -20 -60
-20 -53 0 -60 -2 -60 -20 0 -18 -7 -20 -60 -20 -53 0 -60 -2 -60 -20 0 -18 -7
-20 -60 -20 -53 0 -60 -2 -60 -20 0 -18 -7 -20 -60 -20 -53 0 -60 -2 -60 -20
0 -18 -7 -20 -60 -20 -53 0 -60 -2 -60 -20 0 -18 -7 -20 -60 -20 -53 0 -60 -2
-60 -20 0 -17 -7 -20 -40 -20 -33 0 -40 3 -40 20 0 18 -7 20 -60 20 -53 0 -60
2 -60 20 0 18 -7 20 -60 20 -53 0 -60 2 -60 20 0 18 -7 20 -60 20 -53 0 -60 2
-60 20 0 18 -7 20 -60 20 -53 0 -60 2 -60 20 0 18 -7 20 -60 20 l-60 0 0 -200
c0 -193 1 -200 20 -200 17 0 20 -7 20 -40 l0 -40 40 0 40 0 0 40 c0 33 3 40
20 40 18 0 20 -7 20 -60 l0 -60 40 0 40 0 0 40 c0 33 3 40 20 40 18 0 20 -7
20 -60 l0 -60 40 0 40 0 0 40 c0 33 3 40 20 40 18 0 20 -7 20 -60 l0 -60 40 0
40 0 0 40 c0 33 3 40 20 40 18 0 20 -7 20 -60 l0 -60 40 0 40 0 0 40 0 40 40
0 40 0 0 -40 0 -40 40 0 40 0 0 60 c0 53 2 60 20 60 17 0 20 -7 20 -40 l0 -40
40 0 40 0 0 60 c0 53 2 60 20 60 17 0 20 -7 20 -40 l0 -40 40 0 40 0 0 60 c0
53 2 60 20 60 17 0 20 -7 20 -40 l0 -40 40 0 40 0 0 60 c0 53 2 60 20 60 17 0
20 -7 20 -40 l0 -40 40 0 40 0 0 60 c0 53 2 60 20 60 17 0 20 -7 20 -40 l0
-40 40 0 40 0 0 60 c0 53 2 60 20 60 17 0 20 -7 20 -40 l0 -40 40 0 40 0 0 60
c0 53 2 60 20 60 17 0 20 -7 20 -40 l0 -40 40 0 40 0 0 60 c0 53 2 60 20 60
17 0 20 -7 20 -40 l0 -40 40 0 40 0 0 60 c0 53 2 60 20 60 17 0 20 -7 20 -40
l0 -40 40 0 40 0 0 60 c0 53 2 60 20 60 17 0 20 -7 20 -40 l0 -40 40 0 40 0 0
60 c0 53 2 60 20 60 17 0 20 -7 20 -40 l0 -40 40 0 40 0 0 60 c0 53 2 60 20
60 17 0 20 -7 20 -40 l0 -40 40 0 40 0 0 60 c0 53 2 60 20 60 17 0 20 -7 20
-40 l0 -40 40 0 40 0 0 60 c0 53 2 60 20 60 17 0 20 -7 20 -40 l0 -40 40 0 40
0 0 60 c0 53 2 60 20 60 17 0 20 -7 20 -40 l0 -40 40 0 40 0 0 220 0 220 -100
0 c-93 0 -100 -1 -100 -20z"/>
<path d="M980 1990 c0 -18 -7 -20 -60 -20 -53 0 -60 -2 -60 -20 0 -18 7 -20
60 -20 53 0 60 -2 60 -20 0 -18 7 -20 60 -20 53 0 60 -2 60 -20 0 -17 7 -20
40 -20 33 0 40 -3 40 -20 0 -13 7 -20 20 -20 17 0 20 7 20 40 0 33 3 40 20 40
17 0 20 7 20 40 l0 40 -40 0 c-33 0 -40 3 -40 20 0 19 -7 20 -100 20 -93 0
-100 -1 -100 -20z m200 -40 c0 -13 7 -20 20 -20 13 0 20 -7 20 -20 0 -18 -7
-20 -60 -20 -53 0 -60 2 -60 20 0 18 -7 20 -60 20 -53 0 -60 2 -60 20 0 19 7
20 100 20 93 0 100 -1 100 -20z"/>
<path d="M660 1870 c0 -18 -7 -20 -60 -20 -53 0 -60 -2 -60 -20 0 -18 -7 -20
-60 -20 -53 0 -60 -2 -60 -20 0 -18 7 -20 60 -20 53 0 60 2 60 20 0 17 7 20
40 20 33 0 40 -3 40 -20 0 -18 7 -20 60 -20 53 0 60 -2 60 -20 0 -18 7 -20 60
-20 53 0 60 2 60 20 0 18 -7 20 -60 20 -53 0 -60 2 -60 20 0 17 -7 20 -40 20
-33 0 -40 3 -40 20 0 18 7 20 60 20 53 0 60 2 60 20 0 18 -7 20 -60 20 -53 0
-60 -2 -60 -20z"/>
</g>
</svg>
